REM DIRINDEX 1\2,1\4,1\5,1\6,1\7,1\3\8,1\3\9,1\3\10
REM DIRNAME folder01,folder02,folder03,folder04,folder05,folder06,folder07,folder08,folder09,folder10
TITLE ""
FILE "DB4500_5th_5C_11.mp3" MP3
  TRACK 01 AUDIO
    TITLE "0:"
    INDEX 01 00:00:00
  TRACK 02 AUDIO
    TITLE "8:cjc113_3777"
    INDEX 01 00:00:03
  TRACK 03 AUDIO
    TITLE "0:"
    INDEX 01 00:01:21
  TRACK 04 AUDIO
    TITLE "9:cjc113_3778"
    INDEX 01 00:01:28
  TRACK 05 AUDIO
    TITLE "0:"
    INDEX 01 00:02:61
  TRACK 06 AUDIO
    TITLE "10:cjc113_3779"
    INDEX 01 00:02:65
  TRACK 07 AUDIO
    TITLE "0:"
    INDEX 01 00:05:52
  TRACK 08 AUDIO
    TITLE "8:cjc113_3780"
    INDEX 01 00:06:08
  TRACK 09 AUDIO
    TITLE "0:"
    INDEX 01 00:07:33
  TRACK 10 AUDIO
    TITLE "9:cjc113_3781"
    INDEX 01 00:07:41
  TRACK 11 AUDIO
    TITLE "0:"
    INDEX 01 00:08:54
  TRACK 12 AUDIO
    TITLE "10:cjc113_3782"
    INDEX 01 00:08:60
  TRACK 13 AUDIO
    TITLE "0:"
    INDEX 01 00:12:56
  TRACK 14 AUDIO
    TITLE "8:cjc113_3783"
    INDEX 01 00:13:14
  TRACK 15 AUDIO
    TITLE "0:"
    INDEX 01 00:14:35
  TRACK 16 AUDIO
    TITLE "9:cjc113_3784"
    INDEX 01 00:14:45
  TRACK 17 AUDIO
    TITLE "0:"
    INDEX 01 00:15:72
  TRACK 18 AUDIO
    TITLE "10:cjc113_3785"
    INDEX 01 00:16:08
  TRACK 19 AUDIO
    TITLE "0:"
    INDEX 01 00:19:05
  TRACK 20 AUDIO
    TITLE "8:cjc113_3786"
    INDEX 01 00:19:34
  TRACK 21 AUDIO
    TITLE "0:"
    INDEX 01 00:20:55
  TRACK 22 AUDIO
    TITLE "9:cjc113_3787"
    INDEX 01 00:20:63
  TRACK 23 AUDIO
    TITLE "0:"
    INDEX 01 00:21:62
  TRACK 24 AUDIO
    TITLE "10:cjc113_3788"
    INDEX 01 00:21:70
  TRACK 25 AUDIO
    TITLE "0:"
    INDEX 01 00:24:37
  TRACK 26 AUDIO
    TITLE "8:cjc113_3789"
    INDEX 01 00:24:67
  TRACK 27 AUDIO
    TITLE "0:"
    INDEX 01 00:26:18
  TRACK 28 AUDIO
    TITLE "9:cjc113_3790"
    INDEX 01 00:26:26
  TRACK 29 AUDIO
    TITLE "0:"
    INDEX 01 00:27:36
  TRACK 30 AUDIO
    TITLE "10:cjc113_3791"
    INDEX 01 00:27:45
  TRACK 31 AUDIO
    TITLE "0:"
    INDEX 01 00:32:56
  TRACK 32 AUDIO
    TITLE "8:cjc113_3792"
    INDEX 01 00:33:13
  TRACK 33 AUDIO
    TITLE "0:"
    INDEX 01 00:34:32
  TRACK 34 AUDIO
    TITLE "9:cjc113_3793"
    INDEX 01 00:34:42
  TRACK 35 AUDIO
    TITLE "0:"
    INDEX 01 00:35:74
  TRACK 36 AUDIO
    TITLE "10:cjc113_3794"
    INDEX 01 00:36:07
  TRACK 37 AUDIO
    TITLE "0:"
    INDEX 01 00:40:42
  TRACK 38 AUDIO
    TITLE "8:cjc113_3795"
    INDEX 01 00:41:00
  TRACK 39 AUDIO
    TITLE "0:"
    INDEX 01 00:42:06
  TRACK 40 AUDIO
    TITLE "9:cjc113_3796"
    INDEX 01 00:42:14
  TRACK 41 AUDIO
    TITLE "0:"
    INDEX 01 00:43:56
  TRACK 42 AUDIO
    TITLE "10:cjc113_3797"
    INDEX 01 00:43:62
  TRACK 43 AUDIO
    TITLE "0:"
    INDEX 01 00:47:21
  TRACK 44 AUDIO
    TITLE "8:cjc113_3798"
    INDEX 01 00:47:54
  TRACK 45 AUDIO
    TITLE "0:"
    INDEX 01 00:48:73
  TRACK 46 AUDIO
    TITLE "9:cjc113_3799"
    INDEX 01 00:49:04
  TRACK 47 AUDIO
    TITLE "0:"
    INDEX 01 00:50:25
  TRACK 48 AUDIO
    TITLE "10:cjc113_3800"
    INDEX 01 00:50:33
  TRACK 49 AUDIO
    TITLE "0:"
    INDEX 01 00:53:68
  TRACK 50 AUDIO
    TITLE "8:cjc113_3801"
    INDEX 01 00:54:21
  TRACK 51 AUDIO
    TITLE "0:"
    INDEX 01 00:55:30
  TRACK 52 AUDIO
    TITLE "9:cjc113_3802"
    INDEX 01 00:55:40
  TRACK 53 AUDIO
    TITLE "0:"
    INDEX 01 00:56:65
  TRACK 54 AUDIO
    TITLE "10:cjc113_3803"
    INDEX 01 00:56:71
  TRACK 55 AUDIO
    TITLE "0:"
    INDEX 01 01:00:41
  TRACK 56 AUDIO
    TITLE "8:cjc113_3804"
    INDEX 01 01:01:05
  TRACK 57 AUDIO
    TITLE "0:"
    INDEX 01 01:02:08
  TRACK 58 AUDIO
    TITLE "9:cjc113_3805"
    INDEX 01 01:02:16
  TRACK 59 AUDIO
    TITLE "0:"
    INDEX 01 01:03:27
  TRACK 60 AUDIO
    TITLE "10:cjc113_3806"
    INDEX 01 01:03:31
  TRACK 61 AUDIO
    TITLE "0:"
    INDEX 01 01:06:59
